<svg width="80" height="40" viewBox="0 0 80 40" fill="none" xmlns="http://www.w3.org/2000/svg">
<path d="M71.0207 29.2881H67.1741L67.1979 25.8748H71.0207C71.8147 25.8748 72.4856 25.6725 73.0334 25.268C73.5891 24.8634 74.0099 24.2608 74.2958 23.4602C74.5895 22.6511 74.7364 21.6566 74.7364 20.4767V19.6802C74.7364 18.7953 74.653 18.0199 74.4863 17.3541C74.3275 16.6799 74.0893 16.1194 73.7718 15.6728C73.4542 15.2176 73.0572 14.8763 72.5808 14.6488C72.1124 14.4212 71.5725 14.3074 70.9612 14.3074H67.1026V10.8815H70.9612C72.1362 10.8815 73.212 11.0964 74.1886 11.5262C75.1731 11.9476 76.0226 12.5544 76.7371 13.3466C77.4596 14.1304 78.0154 15.0617 78.4044 16.1405C78.8014 17.2108 78.9999 18.3992 78.9999 19.7055V20.4767C78.9999 21.7746 78.8014 22.9629 78.4044 24.0417C78.0154 25.1205 77.4636 26.0518 76.749 26.8356C76.0345 27.6193 75.1889 28.2262 74.2124 28.656C73.2438 29.0774 72.1799 29.2881 71.0207 29.2881ZM69.5678 10.8815V29.2881H65.3877V10.8815H69.5678Z" fill="white"/>
<path d="M60.1037 10.7279C61.1178 10.7279 61.9399 11.55 61.9399 12.5641V22.5433C61.9399 23.5574 61.1178 24.3795 60.1037 24.3795V24.3795C59.0897 24.3795 58.2676 23.5574 58.2676 22.5433V12.5641C58.2676 11.55 59.0897 10.7279 60.1037 10.7279V10.7279Z" fill="#0000FF"/>
<path d="M60.0627 25.6067C61.0768 25.6067 61.8989 26.4333 61.8989 27.4474V27.4474C61.8989 28.4614 61.0768 29.288 60.0627 29.288V29.288C59.0486 29.288 58.2266 28.4614 58.2266 27.4474V27.4474C58.2266 26.4333 59.0486 25.6067 60.0627 25.6067V25.6067Z" fill="#0000FF"/>
<path d="M38.1835 10.8815H41.5895L45.46 23.6877L49.3305 10.8815H52.7365L46.8415 29.2881H44.0786L38.1835 10.8815ZM36.1113 10.8815H39.6364L40.2914 24.9898V29.2881H36.1113V10.8815ZM51.2836 10.8815H54.8206V29.2881H50.6286V24.9898L51.2836 10.8815Z" fill="white"/>
<path d="M26.6589 14.7499L22.4312 29.2881H17.9414L24.3128 10.8815H27.1591L26.6589 14.7499ZM30.1602 29.2881L25.9206 14.7499L25.3727 10.8815H28.2547L34.6619 29.2881H30.1602ZM29.9935 22.4235V25.8495H21.0973V22.4235H29.9935Z" fill="white"/>
<path d="M13.6829 18.1885V21.6018H4.78675V18.1885H13.6829ZM6.18012 10.8815V29.2881H2V10.8815H6.18012ZM16.4935 10.8815V29.2881H12.3253V10.8815H16.4935Z" fill="white"/>
<path d="M0 30.4L40 37.9693L80 30.4V32.4308L40 40L0 32.4308V30.4Z" fill="#0000FF"/>
<path d="M0 9.59998L40 2.03074L80 9.59998V7.56921L40 -2.46167e-05L0 7.56921V9.59998Z" fill="#0000FF"/>
</svg>
